<?xml version="1.0" standalone="no"?><!DOCTYPE svg PUBLIC "-//W3C//DTD SVG 1.1//EN" "http://www.w3.org/Graphics/SVG/1.1/DTD/svg11.dtd"><svg t="1711507565997" class="icon" viewBox="0 0 1024 1024" version="1.1" xmlns="http://www.w3.org/2000/svg" p-id="32787" width="16" height="16" xmlns:xlink="http://www.w3.org/1999/xlink"><path d="M913 375.3L318.7 32.2c-49.6-28.6-108.8-28.6-158.4 0s-79.2 79.9-79.2 137.2v686.2c0 57.3 29.6 108.6 79.2 137.2 24.8 14.3 52 21.5 79.2 21.5 27.2 0 54.4-7.2 79.2-21.5l294.4-170c10.9-6.3 14.6-20.2 8.3-31.1-6.3-10.9-20.2-14.6-31.1-8.3L296 953.4c-35.3 20.4-77.6 20.4-112.9 0-35.3-20.4-56.5-57-56.5-97.8V169.4c0-40.8 21.1-77.4 56.5-97.8 35.3-20.4 77.6-20.4 112.9 0l594.3 343.1c35.3 20.4 56.5 57 56.5 97.8s-21.1 77.4-56.5 97.8l-52.5 30.3c-10.9 6.3-14.6 20.2-8.3 31.1 6.3 10.9 20.2 14.6 31.1 8.3l52.5-30.3c49.6-28.6 79.2-79.9 79.2-137.2-0.1-57.3-29.7-108.6-79.3-137.2z" fill="#3E3A39" p-id="32788"></path><path d="M789.6 692.2m-23.3 0a23.3 23.3 0 1 0 46.6 0 23.3 23.3 0 1 0-46.6 0Z" fill="#3E3A39" p-id="32789"></path></svg>